<?xml version="1.0" encoding="utf-8"?>
<!-- Generator: Adobe Illustrator 16.0.0, SVG Export Plug-In . SVG Version: 6.00 Build 0)  -->
<!DOCTYPE svg PUBLIC "-//W3C//DTD SVG 1.1//EN" "http://www.w3.org/Graphics/SVG/1.1/DTD/svg11.dtd">
<svg version="1.1" id="Calque_1" xmlns="http://www.w3.org/2000/svg" xmlns:xlink="http://www.w3.org/1999/xlink" x="0px" y="0px"
	 width="319px" height="204px" viewBox="0 0 319 204" enable-background="new 0 0 319 204" xml:space="preserve">
<g>
	<g>
		<defs>
			<path id="SVGID_1_" d="M-98-75v355h509V-75H-98z M-12.163,147.764l-3.322-74.005l390.606-17.538l3.321,74.003L-12.163,147.764z"
				/>
		</defs>
		<clipPath id="SVGID_2_">
			<use xlink:href="#SVGID_1_"  overflow="visible"/>
		</clipPath>
		<g clip-path="url(#SVGID_2_)">
			<g enable-background="new    ">
				<path fill="#FFFFFF" d="M47.77,32.261c0-1.728-0.072-3.672-0.576-5.185c-0.504-1.44-1.296-2.448-2.521-2.448
					c-2.016,0.072-2.664,2.16-2.664,5.256c0,1.8,0.792,3.672,1.944,5.688c1.152,2.016,2.664,4.104,4.176,6.337
					c1.8,2.664,3.6,5.4,4.968,8.064c1.368,2.665,2.305,5.401,2.305,8.281c0,3.528-0.576,6.841-2.232,9.289s-4.32,4.032-8.569,4.032
					c-4.968,0-7.777-1.872-9.361-4.753c-1.584-2.88-1.944-6.696-1.944-10.656l7.633-0.721c0,2.232,0.072,4.465,0.648,6.121
					c0.504,1.728,1.368,2.88,3.024,2.88c2.304,0,3.168-2.448,3.168-5.832c0-1.729-0.864-3.744-2.016-5.833
					c-0.648-1.008-1.296-2.088-2.017-3.168c-1.512-2.16-3.168-4.608-4.896-7.273c-1.729-2.664-3.024-5.4-3.816-8.208
					c-0.432-1.368-0.648-2.808-0.648-4.249c0-2.88,0.648-5.977,2.304-8.353c1.656-2.304,4.177-3.96,7.849-4.032
					c4.68-0.072,7.417,1.872,8.929,4.68c1.512,2.88,1.944,6.409,1.944,9.361L47.77,32.261z"/>
				<path fill="#FFFFFF" d="M82.688,34.997l0.216,0.504h0.144l0.217-0.504l3.888-16.922h7.633l-7.921,30.387V71h-7.776V48.462
					l-7.921-30.387H78.8L82.688,34.997z"/>
				<path fill="#FFFFFF" d="M112.135,18.075h7.777V63.8h10.297V71h-18.074V18.075z"/>
				<path fill="#FFFFFF" d="M161.456,18.075h7.561L160.952,71h-7.776l-8.064-52.925h7.561l3.888,29.091l0.288,2.232h0.433
					l0.288-2.232L161.456,18.075z"/>
				<path fill="#FFFFFF" d="M184.35,71l7.993-52.925h9.505L209.84,71h-7.561l-1.439-10.801h-7.489L191.91,71H184.35z
					 M197.527,35.285l-0.216-1.368h-0.433l-0.216,1.368l-2.232,16.705h5.329L197.527,35.285z"/>
				<path fill="#FFFFFF" d="M227.405,18.075h7.777V71h-7.777V18.075z"/>
				<path fill="#FFFFFF" d="M263.117,43.421l-0.648-2.448h-0.432V71h-7.129V18.075h6.913l7.561,27.579l0.648,2.448h0.432V18.075
					h7.129V71h-6.913L263.117,43.421z"/>
			</g>
			<g enable-background="new    ">
				<path fill="#FFFFFF" d="M47.77,189l-4.969-33.268l-0.288-2.231h-0.432V189H34.88v-52.925h9.505l4.608,24.194l0.36,2.809h0.144
					l0.36-2.809l4.608-24.194h9.505V189h-7.2v-35.499h-0.433l-0.288,2.231L51.082,189H47.77z"/>
				<path fill="#FFFFFF" d="M93.561,189l-4.032-22.322H87.44V189h-7.777v-52.925h7.777c9.288,0,13.249,5.257,13.249,15.266
					c0,5.257-1.368,10.009-4.32,12.024L101.337,189H93.561z M87.44,159.478c1.08,0,2.52-0.144,3.672-1.152
					c1.152-1.008,2.088-2.952,2.088-6.696s-0.936-5.761-2.088-6.769c-1.152-1.009-2.592-1.08-3.672-1.08V159.478z"/>
				<path fill="#FFFFFF" d="M135.825,178.127c-0.072,2.16-0.504,4.104-1.296,5.761c-0.648,1.44-1.656,2.808-3.097,3.889
					c-1.44,1.151-3.385,1.8-5.977,1.8s-4.608-0.648-6.049-1.8c-1.439-1.081-2.376-2.448-3.024-3.889
					c-0.792-1.656-1.224-3.601-1.296-5.761v-31.179c0.072-2.088,0.504-4.032,1.296-5.688c0.648-1.439,1.585-2.881,3.024-3.961
					c1.44-1.08,3.457-1.799,6.049-1.799s4.536,0.719,5.977,1.799s2.448,2.521,3.097,3.961c0.792,1.656,1.224,3.601,1.296,5.688
					V178.127z M128.048,146.948c0-1.44-0.288-2.448-1.008-3.312c-0.36-0.361-0.936-0.576-1.584-0.576
					c-1.368,0-2.017,1.008-2.305,1.943c-0.216,0.576-0.287,1.225-0.287,1.944v31.179c0,1.513,0.359,2.521,1.08,3.313
					c0.359,0.36,0.863,0.576,1.512,0.576c1.368,0,2.017-0.864,2.304-1.944c0.217-0.504,0.288-1.152,0.288-1.944V146.948z"/>
				<path fill="#FFFFFF" d="M171.248,170.854v7.272c-0.072,2.16-0.504,4.104-1.296,5.761c-0.648,1.44-1.656,2.808-3.097,3.889
					c-1.44,1.151-3.385,1.8-5.977,1.8s-4.608-0.648-6.049-1.8c-1.439-1.081-2.376-2.448-3.024-3.889
					c-0.792-1.656-1.224-3.601-1.296-5.761v-31.179c0.072-2.088,0.504-4.032,1.296-5.688c0.648-1.439,1.585-2.881,3.024-3.961
					c1.44-1.08,3.457-1.799,6.049-1.799s4.536,0.719,5.977,1.799s2.448,2.521,3.097,3.961c0.792,1.656,1.224,3.601,1.296,5.688
					v7.272h-7.272v-7.272c0-1.44-0.36-2.448-1.152-3.312c-0.36-0.361-1.008-0.576-1.801-0.576c-1.368,0-2.016,1.008-2.376,1.943
					c-0.216,0.576-0.288,1.225-0.359,1.944v31.179c0.071,1.513,0.504,2.521,1.224,3.313c0.36,0.36,0.864,0.576,1.512,0.576
					c1.656,0,2.305-0.864,2.665-1.944c0.216-0.504,0.288-1.152,0.288-1.944v-7.272H171.248z"/>
				<path fill="#FFFFFF" d="M183.701,180.647l12.169-36.867h-10.44v-7.705h18.865v7.705l-12.385,37.515h12.385V189h-20.594V180.647z
					"/>
				<path fill="#FFFFFF" d="M225.606,136.075v18.506h0.288l0.359-0.864l6.48-17.642h7.561l-7.128,17.426L241.231,189h-7.561
					l-5.4-23.042l-0.216-1.08h-0.217l-0.432,1.08l-1.8,4.32V189h-7.777v-52.925H225.606z"/>
				<path fill="#FFFFFF" d="M275,178.127c-0.072,2.16-0.504,4.104-1.296,5.761c-0.648,1.44-1.656,2.808-3.097,3.889
					c-1.44,1.151-3.385,1.8-5.977,1.8s-4.608-0.648-6.049-1.8c-1.439-1.081-2.376-2.448-3.024-3.889
					c-0.792-1.656-1.224-3.601-1.296-5.761v-31.179c0.072-2.088,0.504-4.032,1.296-5.688c0.648-1.439,1.585-2.881,3.024-3.961
					c1.44-1.08,3.457-1.799,6.049-1.799s4.536,0.719,5.977,1.799s2.448,2.521,3.097,3.961c0.792,1.656,1.224,3.601,1.296,5.688
					V178.127z M267.223,146.948c0-1.44-0.288-2.448-1.008-3.312c-0.36-0.361-0.936-0.576-1.584-0.576
					c-1.368,0-2.017,1.008-2.305,1.943c-0.216,0.576-0.287,1.225-0.287,1.944v31.179c0,1.513,0.359,2.521,1.08,3.313
					c0.359,0.36,0.863,0.576,1.512,0.576c1.368,0,2.017-0.864,2.304-1.944c0.217-0.504,0.288-1.152,0.288-1.944V146.948z"/>
			</g>
		</g>
	</g>
</g>
<line fill="none" stroke="#FFFFFF" stroke-width="2" stroke-miterlimit="10" x1="22.313" y1="72.196" x2="294.363" y2="59.981"/>
<line fill="none" stroke="#FFFFFF" stroke-miterlimit="10" x1="153.993" y1="84.518" x2="161.872" y2="84.17"/>
<line fill="none" stroke="#FFFFFF" stroke-miterlimit="10" x1="153.993" y1="121.266" x2="161.872" y2="120.918"/>
<line fill="none" stroke="#FFFFFF" stroke-width="2" stroke-miterlimit="10" x1="22.313" y1="146.195" x2="294.363" y2="133.98"/>
<g enable-background="new    ">
	<path fill="#FFFFFF" d="M72.907,103.806c0.832,0.696,1.277,1.694,1.336,2.997s-0.284,2.352-1.029,3.146
		c-0.745,0.793-1.917,1.227-3.516,1.299l-2.864,0.129l-0.378-8.379l2.961-0.133C70.911,102.797,72.075,103.109,72.907,103.806z
		 M71.759,108.849c0.44-0.452,0.642-1.091,0.604-1.913s-0.295-1.446-0.774-1.869c-0.48-0.422-1.195-0.612-2.146-0.569l-1.044,0.047
		l0.229,5.095l1.188-0.054C70.671,109.547,71.318,109.301,71.759,108.849z"/>
	<path fill="#FFFFFF" d="M85.709,102.131l0.075,1.666l-4.172,0.188l0.077,1.727l3.753-0.17l0.071,1.594l-3.752,0.17l0.078,1.738
		l4.304-0.193l0.074,1.654l-6.173,0.278l-0.378-8.379L85.709,102.131z M83.333,101.372l-1.715,0.077l1.427-2.189l1.894,0.695
		L83.333,101.372z"/>
	<path fill="#FFFFFF" d="M94.832,107.064l1.893-5.43l2.026-0.091l-2.991,8.531l-1.582,0.071l-3.746-8.227l2.026-0.091
		L94.832,107.064z"/>
	<path fill="#FFFFFF" d="M109.78,101.047l0.075,1.666l-4.172,0.188l0.078,1.726l3.752-0.169l0.071,1.594l-3.752,0.169l0.079,1.739
		l4.303-0.193l0.074,1.654l-6.173,0.277l-0.378-8.378L109.78,101.047z"/>
	<path fill="#FFFFFF" d="M115.949,109.164l-0.378-8.378l1.87-0.084l0.303,6.712l3.572-0.16l0.075,1.666L115.949,109.164z"/>
	<path fill="#FFFFFF" d="M133.52,107.214c-0.811,0.865-1.835,1.326-3.073,1.382c-1.239,0.057-2.301-0.311-3.185-1.1
		c-0.886-0.789-1.355-1.799-1.411-3.03c-0.056-1.229,0.322-2.278,1.133-3.143c0.81-0.866,1.834-1.326,3.073-1.382
		c1.238-0.056,2.3,0.311,3.185,1.101c0.884,0.789,1.354,1.799,1.409,3.028C134.706,105.301,134.328,106.349,133.52,107.214z
		 M132.745,104.161c-0.034-0.747-0.303-1.373-0.806-1.879c-0.504-0.505-1.104-0.743-1.804-0.711c-0.7,0.031-1.277,0.323-1.732,0.871
		c-0.456,0.549-0.668,1.198-0.635,1.944c0.034,0.748,0.303,1.373,0.807,1.875c0.503,0.502,1.104,0.737,1.804,0.706
		c0.699-0.032,1.276-0.319,1.732-0.866C132.566,105.556,132.778,104.909,132.745,104.161z"/>
	<path fill="#FFFFFF" d="M145.844,100.173c0.61,0.473,0.938,1.227,0.985,2.261c0.047,1.035-0.222,1.807-0.803,2.313
		c-0.583,0.507-1.493,0.788-2.732,0.843l-1.113,0.051l0.105,2.338l-1.87,0.084l-0.378-8.379l2.96-0.133
		C144.285,99.492,145.233,99.699,145.844,100.173z M144.619,103.53c0.213-0.261,0.31-0.634,0.287-1.118
		c-0.021-0.483-0.184-0.82-0.484-1.01c-0.302-0.191-0.759-0.273-1.375-0.246l-1.065,0.048l0.127,2.817l1.258-0.057
		C143.989,103.938,144.407,103.793,144.619,103.53z"/>
	<path fill="#FFFFFF" d="M157.951,99.627c0.611,0.473,0.938,1.227,0.985,2.261c0.047,1.036-0.221,1.807-0.803,2.313
		c-0.582,0.508-1.492,0.788-2.731,0.844l-1.114,0.051l0.105,2.338l-1.87,0.084l-0.378-8.379l2.961-0.133
		C156.394,98.947,157.342,99.154,157.951,99.627z M156.728,102.984c0.212-0.26,0.309-0.634,0.286-1.117
		c-0.021-0.483-0.184-0.82-0.483-1.01c-0.302-0.191-0.76-0.273-1.375-0.246l-1.066,0.048l0.127,2.817l1.258-0.057
		C156.097,103.393,156.516,103.247,156.728,102.984z"/>
	<path fill="#FFFFFF" d="M170.295,98.321l0.075,1.666l-4.171,0.188l0.078,1.726l3.752-0.169l0.071,1.594l-3.752,0.169l0.079,1.739
		l4.303-0.194l0.074,1.654l-6.173,0.278l-0.378-8.379L170.295,98.321z"/>
	<path fill="#FFFFFF" d="M178.583,104.175c0.33,0.374,0.759,0.55,1.285,0.525c0.527-0.024,0.937-0.237,1.227-0.638
		c0.29-0.401,0.42-0.938,0.39-1.609l-0.209-4.627l1.87-0.084l0.212,4.687c0.055,1.216-0.238,2.164-0.881,2.845
		c-0.642,0.681-1.486,1.045-2.533,1.093s-1.923-0.242-2.628-0.867c-0.705-0.624-1.084-1.54-1.138-2.747l-0.212-4.687l1.87-0.084
		l0.209,4.626C178.075,103.279,178.255,103.803,178.583,104.175z"/>
	<path fill="#FFFFFF" d="M196.003,99.95c0.061,1.342-0.432,2.233-1.477,2.672l2.257,2.901l-2.303,0.104l-1.978-2.589l-1.295,0.058
		l0.12,2.674l-1.87,0.084l-0.378-8.379l3.177-0.143c1.303-0.059,2.243,0.118,2.817,0.534
		C195.649,98.279,195.959,98.974,196.003,99.95z M193.795,101.045c0.221-0.219,0.322-0.553,0.302-1.004
		c-0.021-0.452-0.154-0.756-0.4-0.914c-0.248-0.157-0.671-0.222-1.271-0.195l-1.402,0.063l0.111,2.481l1.367-0.062
		C193.141,101.387,193.571,101.265,193.795,101.045z"/>
	<path fill="#FFFFFF" d="M211.775,101.28l1.269-4.885l1.954-0.088l1.692,4.752l1.448-4.894l2.025-0.091l-2.547,8.511l-1.39,0.063
		l-2.097-5.743l-1.56,5.908l-1.392,0.063l-3.303-8.247l2.026-0.091L211.775,101.28z"/>
	<path fill="#FFFFFF" d="M231.193,95.578l0.075,1.666l-4.172,0.188l0.078,1.726l3.752-0.169l0.071,1.594l-3.752,0.169l0.079,1.739
		l4.304-0.194l0.074,1.655l-6.174,0.277l-0.378-8.379L231.193,95.578z"/>
	<path fill="#FFFFFF" d="M241.029,103.53l-3.668,0.165l-0.378-8.378l3.261-0.147c0.567-0.025,1.061,0.02,1.478,0.137
		c0.418,0.117,0.737,0.287,0.954,0.51c0.396,0.414,0.605,0.894,0.63,1.437c0.029,0.656-0.16,1.153-0.57,1.491
		c-0.138,0.119-0.234,0.194-0.289,0.224c-0.056,0.031-0.153,0.081-0.294,0.15c0.523,0.089,0.948,0.305,1.272,0.646
		c0.323,0.342,0.496,0.776,0.521,1.304c0.026,0.584-0.15,1.108-0.529,1.574C242.976,103.183,242.181,103.479,241.029,103.53z
		 M239.007,98.624l0.887-0.04c0.52-0.023,0.902-0.096,1.149-0.22c0.247-0.123,0.362-0.37,0.346-0.742s-0.145-0.612-0.381-0.722
		c-0.238-0.11-0.632-0.152-1.185-0.127l-0.898,0.041L239.007,98.624z M239.16,102.029l1.283-0.058
		c0.534-0.024,0.934-0.109,1.195-0.252c0.262-0.144,0.384-0.41,0.366-0.796c-0.018-0.389-0.171-0.638-0.459-0.75
		c-0.29-0.11-0.747-0.151-1.37-0.123l-1.103,0.049L239.16,102.029z"/>
</g>
<rect x="20.294" y="107.475" transform="matrix(-0.7412 -0.6712 0.6712 -0.7412 -34.9618 204.9177)" fill="#FFFFFF" width="3.447" height="3.446"/>
<rect x="293.283" y="95.264" transform="matrix(-0.7415 -0.671 0.671 -0.7415 448.6798 366.8375)" fill="#FFFFFF" width="3.447" height="3.447"/>
</svg>
