<?xml version="1.0" encoding="utf-8"?>
<!-- Generator: Adobe Illustrator 16.0.0, SVG Export Plug-In . SVG Version: 6.00 Build 0)  -->
<!DOCTYPE svg PUBLIC "-//W3C//DTD SVG 1.1//EN" "http://www.w3.org/Graphics/SVG/1.1/DTD/svg11.dtd">
<svg version="1.1" id="Calque_1" xmlns="http://www.w3.org/2000/svg" xmlns:xlink="http://www.w3.org/1999/xlink" x="0px" y="0px"
	 width="40px" height="40px" viewBox="0 0 40 40" enable-background="new 0 0 40 40" xml:space="preserve">
<g id="Loupe" opacity="0.6">
	<path fill="#FFFFFF" d="M32.582,7.032c-6.113-6.113-16.025-6.114-22.139,0c-6.113,6.114-6.113,16.025,0,22.139
		s16.023,6.113,22.139,0C38.695,23.057,38.695,13.145,32.582,7.032z M13.822,25.791c-4.248-4.248-4.248-11.134,0-15.381
		c4.246-4.248,11.133-4.248,15.381,0c4.246,4.247,4.246,11.133,0,15.381C24.955,30.039,18.068,30.039,13.822,25.791z"/>
	
		<rect x="5.07" y="24.365" transform="matrix(0.7071 0.7071 -0.7071 0.7071 24.8174 3.7963)" fill="#FFFFFF" width="5.513" height="14.982"/>
</g>
</svg>
